<svg xmlns="http://www.w3.org/2000/svg" xmlns:xlink="http://www.w3.org/1999/xlink" width="300" zoomAndPan="magnify" viewBox="0 0 224.87999 225" height="300" preserveAspectRatio="xMidYMid meet" version="1.0"><defs><clipPath id="25ea615b31"><path d="M 27.007812 27.070312 L 197.917969 27.070312 L 197.917969 197.976562 L 27.007812 197.976562 Z M 27.007812 27.070312 " clip-rule="nonzero"/></clipPath></defs><g clip-path="url(#25ea615b31)"><path fill="#1a1a1a" d="M 81.445312 163.398438 C 82.964844 163.386719 84.210938 164.609375 84.222656 166.132812 C 84.238281 167.652344 83.011719 168.898438 81.492188 168.914062 L 55.214844 169.140625 L 55.214844 175.132812 C 55.214844 176.191406 54.609375 177.160156 53.652344 177.617188 C 52.699219 178.078125 51.566406 177.949219 50.738281 177.285156 L 28.042969 159.140625 C 27.390625 158.617188 27.007812 157.828125 27.007812 156.988281 C 27.007812 156.152344 27.390625 155.359375 28.042969 154.835938 L 50.738281 136.691406 C 51.566406 136.027344 52.699219 135.898438 53.652344 136.359375 C 54.609375 136.820312 55.214844 137.785156 55.214844 138.84375 L 55.214844 145.21875 L 62.996094 146.472656 C 64.496094 146.714844 65.519531 148.128906 65.277344 149.632812 C 65.035156 151.132812 63.621094 152.15625 62.117188 151.914062 L 52.019531 150.289062 C 50.683594 150.074219 49.703125 148.921875 49.703125 147.566406 C 49.703125 147.566406 49.703125 144.578125 49.703125 144.578125 C 49.703125 144.578125 34.179688 156.988281 34.179688 156.988281 C 34.179688 156.988281 49.703125 169.398438 49.703125 169.398438 L 49.703125 166.410156 C 49.703125 164.898438 50.921875 163.667969 52.433594 163.652344 Z M 160.71875 76.984375 C 159.21875 76.742188 158.195312 75.324219 158.4375 73.824219 C 158.679688 72.320312 160.09375 71.296875 161.597656 71.539062 L 172.90625 73.363281 C 174.242188 73.578125 175.226562 74.730469 175.226562 76.082031 C 175.226562 76.082031 175.226562 79.074219 175.226562 79.074219 C 175.226562 79.074219 190.746094 66.664062 190.746094 66.664062 C 190.746094 66.664062 175.226562 54.25 175.226562 54.25 L 175.226562 57.242188 C 175.226562 58.730469 174.042969 59.949219 172.554688 59.996094 L 142.34375 60.964844 C 140.820312 61.011719 139.546875 59.816406 139.5 58.296875 C 139.449219 56.777344 140.644531 55.5 142.164062 55.453125 L 169.710938 54.570312 L 169.710938 48.515625 C 169.710938 47.457031 170.320312 46.492188 171.273438 46.03125 C 172.226562 45.574219 173.363281 45.703125 174.191406 46.363281 L 196.882812 64.507812 C 197.539062 65.03125 197.917969 65.824219 197.917969 66.664062 C 197.917969 67.5 197.539062 68.292969 196.882812 68.816406 L 174.191406 86.960938 C 173.363281 87.621094 172.226562 87.75 171.273438 87.292969 C 170.320312 86.832031 169.710938 85.867188 169.710938 84.808594 L 169.710938 78.429688 Z M 61.4375 81.75 C 61.460938 83.269531 60.242188 84.519531 58.71875 84.542969 C 57.199219 84.5625 55.945312 83.34375 55.925781 81.824219 L 55.5625 55.277344 L 49.558594 55.277344 C 48.5 55.277344 47.535156 54.667969 47.074219 53.714844 C 46.617188 52.757812 46.742188 51.625 47.40625 50.796875 L 65.550781 28.105469 C 66.074219 27.449219 66.867188 27.070312 67.703125 27.070312 C 68.542969 27.070312 69.332031 27.449219 69.855469 28.105469 L 88 50.796875 C 88.664062 51.625 88.792969 52.757812 88.332031 53.714844 C 87.875 54.667969 86.910156 55.277344 85.847656 55.277344 L 79.472656 55.277344 L 78.179688 63.304688 C 77.9375 64.804688 76.523438 65.828125 75.019531 65.585938 C 73.519531 65.34375 72.496094 63.929688 72.738281 62.425781 L 74.402344 52.082031 C 74.617188 50.746094 75.773438 49.761719 77.125 49.761719 C 77.125 49.761719 80.113281 49.761719 80.113281 49.761719 C 80.113281 49.761719 67.703125 34.238281 67.703125 34.238281 C 67.703125 34.238281 55.292969 49.761719 55.292969 49.761719 L 58.28125 49.761719 C 59.789062 49.761719 61.019531 50.972656 61.039062 52.480469 Z M 146.855469 161.664062 C 147.097656 160.160156 148.515625 159.136719 150.015625 159.378906 C 151.519531 159.621094 152.542969 161.039062 152.300781 162.539062 L 150.621094 172.964844 C 150.40625 174.300781 149.25 175.285156 147.898438 175.285156 C 147.898438 175.285156 144.910156 175.285156 144.910156 175.285156 C 144.910156 175.285156 157.320312 190.808594 157.320312 190.808594 C 157.320312 190.808594 169.730469 175.285156 169.730469 175.285156 L 166.742188 175.285156 C 165.234375 175.285156 164.007812 174.074219 163.984375 172.570312 L 163.535156 143.21875 C 163.515625 141.699219 164.730469 140.445312 166.25 140.421875 C 167.773438 140.398438 169.027344 141.613281 169.050781 143.136719 L 169.457031 169.773438 L 175.464844 169.773438 C 176.523438 169.773438 177.488281 170.378906 177.949219 171.332031 C 178.410156 172.289062 178.28125 173.421875 177.617188 174.25 L 159.472656 196.941406 C 158.949219 197.597656 158.15625 197.976562 157.320312 197.976562 C 156.480469 197.976562 155.691406 197.597656 155.167969 196.941406 L 137.023438 174.25 C 136.359375 173.421875 136.230469 172.289062 136.691406 171.332031 C 137.148438 170.378906 138.117188 169.773438 139.175781 169.773438 C 139.175781 169.773438 145.550781 169.773438 145.550781 169.773438 Z M 112.464844 168.640625 C 81.5625 168.640625 56.347656 143.425781 56.347656 112.523438 C 56.347656 81.621094 81.5625 56.40625 112.464844 56.40625 C 143.367188 56.40625 168.582031 81.621094 168.582031 112.523438 C 168.582031 143.425781 143.367188 168.640625 112.464844 168.640625 Z M 112.464844 163.128906 C 140.332031 163.128906 163.070312 140.390625 163.070312 112.523438 C 163.070312 84.65625 140.332031 61.917969 112.464844 61.917969 C 84.597656 61.917969 61.859375 84.65625 61.859375 112.523438 C 61.859375 140.390625 84.597656 163.128906 112.464844 163.128906 Z M 112.464844 156.027344 C 88.507812 156.027344 68.960938 136.480469 68.960938 112.523438 C 68.960938 88.570312 88.507812 69.019531 112.464844 69.019531 C 136.417969 69.019531 155.964844 88.570312 155.964844 112.523438 C 155.964844 136.480469 136.417969 156.027344 112.464844 156.027344 Z M 112.464844 150.511719 C 133.382812 150.511719 150.453125 133.441406 150.453125 112.523438 C 150.453125 91.605469 133.382812 74.535156 112.464844 74.535156 C 91.546875 74.535156 74.472656 91.605469 74.472656 112.523438 C 74.472656 133.441406 91.546875 150.511719 112.464844 150.511719 Z M 109.707031 89.984375 L 109.707031 86.734375 C 109.707031 85.214844 110.941406 83.980469 112.464844 83.980469 C 113.984375 83.980469 115.21875 85.214844 115.21875 86.734375 L 115.21875 89.949219 C 120.089844 90.707031 124.703125 93.605469 127 99.074219 C 127.589844 100.476562 126.929688 102.09375 125.527344 102.683594 C 124.125 103.273438 122.507812 102.613281 121.917969 101.210938 C 119.488281 95.433594 113.039062 94.203125 108.390625 96.03125 C 105.558594 97.148438 103.347656 99.476562 103.507812 102.800781 C 103.636719 105.464844 105.304688 107.027344 107.359375 108.03125 C 109.082031 108.871094 111.070312 109.351562 112.949219 109.660156 C 119.699219 110.765625 127.222656 113.699219 128.203125 121.726562 L 128.203125 121.730469 C 129.183594 129.84375 122.144531 134.238281 115.21875 135.132812 L 115.21875 138.3125 C 115.21875 139.832031 113.984375 141.066406 112.464844 141.066406 C 110.941406 141.066406 109.707031 139.832031 109.707031 138.3125 L 109.707031 135.09375 C 103.664062 134.199219 98.296875 130.484375 96.71875 124.148438 C 96.351562 122.671875 97.253906 121.175781 98.730469 120.808594 C 100.207031 120.441406 101.703125 121.339844 102.070312 122.816406 C 103.285156 127.703125 108.15625 129.898438 112.929688 129.785156 C 115.429688 129.726562 118.203125 129.082031 120.253906 127.671875 C 121.914062 126.527344 123.023438 124.800781 122.730469 122.390625 C 122.441406 120.011719 121.101562 118.46875 119.363281 117.421875 C 117.214844 116.128906 114.527344 115.507812 112.058594 115.101562 L 112.054688 115.101562 C 105.496094 114.023438 98.382812 110.867188 98 103.070312 C 97.714844 97.183594 101.359375 92.875 106.371094 90.902344 C 107.433594 90.484375 108.554688 90.175781 109.707031 89.984375 Z M 109.707031 89.984375 " fill-opacity="1" fill-rule="evenodd"/><path fill="#1a1a1a" d="M 81.445312 163.398438 C 82.964844 163.386719 84.210938 164.609375 84.222656 166.132812 C 84.238281 167.652344 83.011719 168.898438 81.492188 168.914062 L 55.214844 169.140625 L 55.214844 175.132812 C 55.214844 176.191406 54.609375 177.160156 53.652344 177.617188 C 52.699219 178.078125 51.566406 177.949219 50.738281 177.285156 L 28.042969 159.140625 C 27.390625 158.617188 27.007812 157.828125 27.007812 156.988281 C 27.007812 156.152344 27.390625 155.359375 28.042969 154.835938 L 50.738281 136.691406 C 51.566406 136.027344 52.699219 135.898438 53.652344 136.359375 C 54.609375 136.820312 55.214844 137.785156 55.214844 138.84375 L 55.214844 145.21875 L 62.996094 146.472656 C 64.496094 146.714844 65.519531 148.128906 65.277344 149.632812 C 65.035156 151.132812 63.621094 152.15625 62.117188 151.914062 L 52.019531 150.289062 C 50.683594 150.074219 49.703125 148.921875 49.703125 147.566406 C 49.703125 147.566406 49.703125 144.578125 49.703125 144.578125 C 49.703125 144.578125 34.179688 156.988281 34.179688 156.988281 C 34.179688 156.988281 49.703125 169.398438 49.703125 169.398438 L 49.703125 166.410156 C 49.703125 164.898438 50.921875 163.667969 52.433594 163.652344 Z M 160.71875 76.984375 C 159.21875 76.742188 158.195312 75.324219 158.4375 73.824219 C 158.679688 72.320312 160.09375 71.296875 161.597656 71.539062 L 172.90625 73.363281 C 174.242188 73.578125 175.226562 74.730469 175.226562 76.082031 C 175.226562 76.082031 175.226562 79.074219 175.226562 79.074219 C 175.226562 79.074219 190.746094 66.664062 190.746094 66.664062 C 190.746094 66.664062 175.226562 54.25 175.226562 54.25 L 175.226562 57.242188 C 175.226562 58.730469 174.042969 59.949219 172.554688 59.996094 L 142.34375 60.964844 C 140.820312 61.011719 139.546875 59.816406 139.5 58.296875 C 139.449219 56.777344 140.644531 55.5 142.164062 55.453125 L 169.710938 54.570312 L 169.710938 48.515625 C 169.710938 47.457031 170.320312 46.492188 171.273438 46.03125 C 172.226562 45.574219 173.363281 45.703125 174.191406 46.363281 L 196.882812 64.507812 C 197.539062 65.03125 197.917969 65.824219 197.917969 66.664062 C 197.917969 67.5 197.539062 68.292969 196.882812 68.816406 L 174.191406 86.960938 C 173.363281 87.621094 172.226562 87.75 171.273438 87.292969 C 170.320312 86.832031 169.710938 85.867188 169.710938 84.808594 L 169.710938 78.429688 Z M 61.4375 81.75 C 61.460938 83.269531 60.242188 84.519531 58.71875 84.542969 C 57.199219 84.5625 55.945312 83.34375 55.925781 81.824219 L 55.5625 55.277344 L 49.558594 55.277344 C 48.5 55.277344 47.535156 54.667969 47.074219 53.714844 C 46.617188 52.757812 46.742188 51.625 47.40625 50.796875 L 65.550781 28.105469 C 66.074219 27.449219 66.867188 27.070312 67.703125 27.070312 C 68.542969 27.070312 69.332031 27.449219 69.855469 28.105469 L 88 50.796875 C 88.664062 51.625 88.792969 52.757812 88.332031 53.714844 C 87.875 54.667969 86.910156 55.277344 85.847656 55.277344 L 79.472656 55.277344 L 78.179688 63.304688 C 77.9375 64.804688 76.523438 65.828125 75.019531 65.585938 C 73.519531 65.34375 72.496094 63.929688 72.738281 62.425781 L 74.402344 52.082031 C 74.617188 50.746094 75.773438 49.761719 77.125 49.761719 C 77.125 49.761719 80.113281 49.761719 80.113281 49.761719 C 80.113281 49.761719 67.703125 34.238281 67.703125 34.238281 C 67.703125 34.238281 55.292969 49.761719 55.292969 49.761719 L 58.28125 49.761719 C 59.789062 49.761719 61.019531 50.972656 61.039062 52.480469 Z M 146.855469 161.664062 C 147.097656 160.160156 148.515625 159.136719 150.015625 159.378906 C 151.519531 159.621094 152.542969 161.039062 152.300781 162.539062 L 150.621094 172.964844 C 150.40625 174.300781 149.25 175.285156 147.898438 175.285156 C 147.898438 175.285156 144.910156 175.285156 144.910156 175.285156 C 144.910156 175.285156 157.320312 190.808594 157.320312 190.808594 C 157.320312 190.808594 169.730469 175.285156 169.730469 175.285156 L 166.742188 175.285156 C 165.234375 175.285156 164.007812 174.074219 163.984375 172.570312 L 163.535156 143.21875 C 163.515625 141.699219 164.730469 140.445312 166.25 140.421875 C 167.773438 140.398438 169.027344 141.613281 169.050781 143.136719 L 169.457031 169.773438 L 175.464844 169.773438 C 176.523438 169.773438 177.488281 170.378906 177.949219 171.332031 C 178.410156 172.289062 178.28125 173.421875 177.617188 174.25 L 159.472656 196.941406 C 158.949219 197.597656 158.15625 197.976562 157.320312 197.976562 C 156.480469 197.976562 155.691406 197.597656 155.167969 196.941406 L 137.023438 174.25 C 136.359375 173.421875 136.230469 172.289062 136.691406 171.332031 C 137.148438 170.378906 138.117188 169.773438 139.175781 169.773438 C 139.175781 169.773438 145.550781 169.773438 145.550781 169.773438 Z M 112.464844 168.640625 C 81.5625 168.640625 56.347656 143.425781 56.347656 112.523438 C 56.347656 81.621094 81.5625 56.40625 112.464844 56.40625 C 143.367188 56.40625 168.582031 81.621094 168.582031 112.523438 C 168.582031 143.425781 143.367188 168.640625 112.464844 168.640625 Z M 112.464844 163.128906 C 140.332031 163.128906 163.070312 140.390625 163.070312 112.523438 C 163.070312 84.65625 140.332031 61.917969 112.464844 61.917969 C 84.597656 61.917969 61.859375 84.65625 61.859375 112.523438 C 61.859375 140.390625 84.597656 163.128906 112.464844 163.128906 Z M 112.464844 156.027344 C 88.507812 156.027344 68.960938 136.480469 68.960938 112.523438 C 68.960938 88.570312 88.507812 69.019531 112.464844 69.019531 C 136.417969 69.019531 155.964844 88.570312 155.964844 112.523438 C 155.964844 136.480469 136.417969 156.027344 112.464844 156.027344 Z M 112.464844 150.511719 C 133.382812 150.511719 150.453125 133.441406 150.453125 112.523438 C 150.453125 91.605469 133.382812 74.535156 112.464844 74.535156 C 91.546875 74.535156 74.472656 91.605469 74.472656 112.523438 C 74.472656 133.441406 91.546875 150.511719 112.464844 150.511719 Z M 109.707031 89.984375 L 109.707031 86.734375 C 109.707031 85.214844 110.941406 83.980469 112.464844 83.980469 C 113.984375 83.980469 115.21875 85.214844 115.21875 86.734375 L 115.21875 89.949219 C 120.089844 90.707031 124.703125 93.605469 127 99.074219 C 127.589844 100.476562 126.929688 102.09375 125.527344 102.683594 C 124.125 103.273438 122.507812 102.613281 121.917969 101.210938 C 119.488281 95.433594 113.039062 94.203125 108.390625 96.03125 C 105.558594 97.148438 103.347656 99.476562 103.507812 102.800781 C 103.636719 105.464844 105.304688 107.027344 107.359375 108.03125 C 109.082031 108.871094 111.070312 109.351562 112.949219 109.660156 C 119.699219 110.765625 127.222656 113.699219 128.203125 121.726562 L 128.203125 121.730469 C 129.183594 129.84375 122.144531 134.238281 115.21875 135.132812 L 115.21875 138.3125 C 115.21875 139.832031 113.984375 141.066406 112.464844 141.066406 C 110.941406 141.066406 109.707031 139.832031 109.707031 138.3125 L 109.707031 135.09375 C 103.664062 134.199219 98.296875 130.484375 96.71875 124.148438 C 96.351562 122.671875 97.253906 121.175781 98.730469 120.808594 C 100.207031 120.441406 101.703125 121.339844 102.070312 122.816406 C 103.285156 127.703125 108.15625 129.898438 112.929688 129.785156 C 115.429688 129.726562 118.203125 129.082031 120.253906 127.671875 C 121.914062 126.527344 123.023438 124.800781 122.730469 122.390625 C 122.441406 120.011719 121.101562 118.46875 119.363281 117.421875 C 117.214844 116.128906 114.527344 115.507812 112.058594 115.101562 L 112.054688 115.101562 C 105.496094 114.023438 98.382812 110.867188 98 103.070312 C 97.714844 97.183594 101.359375 92.875 106.371094 90.902344 C 107.433594 90.484375 108.554688 90.175781 109.707031 89.984375 Z M 109.707031 89.984375 " fill-opacity="1" fill-rule="evenodd"/></g></svg>